<svg aria-hidden="true" style="width:0;height:0;position:absolute;overflow:hidden" xmlns="http://www.w3.org/2000/svg"><defs><symbol id="arrow" viewBox="0 0 32 32"><path d="M32 4.741 27.259 0v23.703L3.556 0-.001 3.557 23.702 27.26H-.001l4.741 4.741h27.259V4.742z"/></symbol><symbol id="cart" viewBox="0 0 32 32"><path fill="#ae1332" style="fill:var(--color1,#ae1332)" d="M25.333 9.334h-4V8a5.334 5.334 0 0 0-10.666-.004v1.338h-4c-.736 0-1.333.596-1.334 1.332v14.668a4 4 0 0 0 4 4h13.334a4 4 0 0 0 4-4V10.667a1.334 1.334 0 0 0-1.332-1.333zM13.333 8a2.667 2.667 0 1 1 5.334 0v1.334h-5.333V8zM24 25.334c0 .736-.597 1.333-1.333 1.333H9.334A1.334 1.334 0 0 1 8 25.335V12.001h2.666v1.334a1.333 1.333 0 0 0 2.666 0v-1.334h5.334v1.334a1.334 1.334 0 1 0 2.668 0v-1.334H24v13.334z"/></symbol><symbol id="youtube" viewBox="0 0 32 32"><path fill="#ae1332" style="fill:var(--color1,#ae1332)" opacity=".8" d="M24.24 6c-1.36-.08-4.16-.16-8.4-.16h-.56c-4.08 0-6.8.08-8.16.24-1.84.16-3.12.64-3.84 1.28-.64.56-1.12 1.6-1.28 2.96-.08.88-.16 2.72-.16 5.52v.4c0 2.64.08 4.48.24 5.36.24 1.28.64 2.24 1.44 2.8.8.64 2.16 1.04 4.08 1.2 1.36.08 4.16.16 8.4.16h.56c4.08 0 6.8-.08 8.16-.24 1.84-.16 3.12-.64 3.84-1.28.64-.56 1.12-1.6 1.28-2.96.08-.88.16-2.72.16-5.52v-.4c0-2.64-.08-4.48-.24-5.36-.24-1.28-.64-2.24-1.44-2.8-.8-.64-2.16-1.04-4.08-1.2zm-3.12 9.84-8.8 5.28V10.56l8.8 5.28z"/></symbol><symbol id="instagram" viewBox="0 0 32 32"><path fill="#ae1332" style="fill:var(--color1,#ae1332)" opacity=".8" d="M28.718 10.757a9.248 9.248 0 0 0-.617-3.208l.021.063a6.588 6.588 0 0 0-3.7-3.722l-.044-.015a9.192 9.192 0 0 0-3.097-.596h-.01c-1.367-.061-1.801-.078-5.271-.078-3.472 0-3.917 0-5.274.078a9.384 9.384 0 0 0-3.106.597 6.584 6.584 0 0 0-3.73 3.693l-.015.044a9.103 9.103 0 0 0-.596 3.091v.009c-.061 1.367-.08 1.8-.08 5.265 0 3.466 0 3.909.08 5.265a9.377 9.377 0 0 0 .597 3.104 6.59 6.59 0 0 0 3.7 3.721l.044.015c.917.37 1.979.601 3.091.638h.016c1.369.061 1.802.08 5.274.08 3.471 0 3.917 0 5.274-.08a9.383 9.383 0 0 0 3.172-.616l-.064.022a6.594 6.594 0 0 0 3.727-3.693l.016-.044a9.325 9.325 0 0 0 .595-3.104c.062-1.366.08-1.799.08-5.266-.003-3.465-.003-3.905-.082-5.263zM15.989 22.531h-.007a6.565 6.565 0 0 1-6.565-6.561 6.566 6.566 0 0 1 6.566-6.561h.006c3.629 0 6.571 2.937 6.571 6.561a6.567 6.567 0 0 1-6.567 6.56h-.005zm6.834-11.835a1.53 1.53 0 1 1 0-3.06l.042-.001a1.53 1.53 0 1 1 0 3.06l-.044-.001h.002z"/><path fill="#ae1332" style="fill:var(--color1,#ae1332)" opacity=".8" d="M15.992 19.976a4.004 4.004 0 0 0 0-8.008 4.004 4.004 0 0 0 0 8.008z"/></symbol><symbol id="facebook" viewBox="0 0 32 32"><path fill="#ae1332" style="fill:var(--color1,#ae1332)" opacity=".8" d="M19.52 4.64h.96v3.6h-1.2c-.48 0-.96 0-1.2.24s-.24.48-.24 1.04v1.28h2.64v3.04h-2.64v13.2h-4.08V13.76H11.6v-3.04h2.16V9.68c0-1.76.24-3.04.72-3.6.72-1.04 2.16-1.52 4.32-1.52.24.08.48.08.72.08z"/></symbol><symbol id="FreshHarvestBox-logo" viewBox="0 0 277 32"><path fill="#ae1332" style="fill:var(--color1,#ae1332)" d="M25.851 2.057h-3.582a1.973 1.973 0 0 0-1.973 1.951v3.493a1.973 1.973 0 0 0 1.973 1.952h3.6a1.973 1.973 0 0 0 1.973-1.951V4.009a1.973 1.973 0 0 0-1.973-1.952h-.019.001zM5.982 22.258H2.144C.96 22.258 0 23.133 0 24.21v3.492c0 1.079.96 1.952 2.144 1.952h3.84c1.182 0 2.142-.873 2.142-1.952V24.21c0-1.079-.96-1.952-2.144-1.952zm-.426-10.187H1.974a1.973 1.973 0 0 0-1.973 1.955v3.492a1.973 1.973 0 0 0 1.973 1.952h3.6a1.973 1.973 0 0 0 1.973-1.951v-3.493a1.973 1.973 0 0 0-1.973-1.952h-.019.001zm10.236 10.133h-3.564c-1.099 0-1.991.871-1.991 1.95v3.492a1.973 1.973 0 0 0 1.973 1.952h3.6a1.973 1.973 0 0 0 1.973-1.951v-3.493a1.973 1.973 0 0 0-1.973-1.952h-.019.001zM5.556 1.854H1.974A1.973 1.973 0 0 0 .001 3.805v3.493A1.973 1.973 0 0 0 1.974 9.25h3.6a1.973 1.973 0 0 0 1.973-1.951V3.806a1.973 1.973 0 0 0-1.973-1.952h-.019.001zm10.512 10.322h-3.564c-1.099 0-1.991.873-1.991 1.95v3.493a1.973 1.973 0 0 0 1.973 1.952h3.6a1.973 1.973 0 0 0 1.973-1.951v-3.494c0-1.077-.891-1.95-1.991-1.95zm10.007 10.028h-3.564c-1.1 0-1.991.871-1.991 1.95v3.492a1.973 1.973 0 0 0 1.973 1.952h3.6a1.973 1.973 0 0 0 1.973-1.951v-3.493a1.973 1.973 0 0 0-1.973-1.952h-.019.001zM15.636 1.977h-3.563c-1.1 0-1.991.873-1.991 1.952v3.492a1.973 1.973 0 0 0 1.973 1.952H15.654a1.973 1.973 0 0 0 1.973-1.951V3.929c0-1.079-.891-1.952-1.991-1.952zm10.181 10.402h-3.582a1.973 1.973 0 0 0-1.973 1.951v3.493a1.973 1.973 0 0 0 1.973 1.952h3.6a1.973 1.973 0 0 0 1.973-1.951v-3.493a1.973 1.973 0 0 0-1.973-1.952h-.019.001zm19.104 12.51V7.467h11.25v2.564h-8.064v4.878h6.521v2.514h-6.521v7.467h-3.186zm12.711 0V7.467h6.398c1.394 0 2.539.24 3.435.722.912.464 1.593 1.102 2.041 1.916.448.796.672 1.684.672 2.663a5.296 5.296 0 0 1-.846 2.912c-.548.88-1.412 1.518-2.588 1.916l3.609 7.292h-3.659l-3.236-6.869h-2.64v6.869h-3.186zm3.188-9.209h3.012c1.061 0 1.842-.258 2.34-.772.498-.516.747-1.195.747-2.041 0-.83-.249-1.493-.747-1.991-.48-.498-1.269-.747-2.364-.747h-2.987v5.55zm11.322 9.209V7.467h11.374v2.564h-8.187v4.779h7.44v2.489h-7.44v5.028h8.187v2.564H72.142zm19.342.299c-1.276 0-2.405-.215-3.385-.647a5.605 5.605 0 0 1-2.303-1.874l-.012-.017c-.564-.83-.853-1.833-.871-3.012h3.36c.034.812.324 1.502.871 2.066.565.548 1.337.821 2.315.821.846 0 1.518-.199 2.016-.597.498-.414.747-.962.747-1.643 0-.713-.224-1.269-.672-1.668-.43-.398-1.012-.722-1.742-.971l-2.34-.796c-1.344-.464-2.372-1.061-3.086-1.792-.697-.729-1.045-1.701-1.045-2.912-.016-1.029.224-1.908.722-2.638a5.014 5.014 0 0 1 2.059-1.705l.032-.013c.88-.414 1.892-.622 3.036-.622 1.163 0 2.183.208 3.061.622.896.414 1.593.996 2.091 1.742.516.747.789 1.636.821 2.663h-3.41a2.31 2.31 0 0 0-.721-1.617l-.001-.001c-.448-.48-1.077-.722-1.892-.722-.697-.018-1.285.158-1.767.523-.464.348-.697.862-.697 1.543 0 .581.183 1.045.548 1.394.366.332.864.613 1.493.846.631.231 1.353.48 2.165.747.864.299 1.652.647 2.364 1.045.715.398 1.287.93 1.717 1.593.432.647.647 1.484.647 2.514a4.86 4.86 0 0 1-.697 2.539c-.464.78-1.152 1.41-2.066 1.892-.912.464-2.032.697-3.36.697zm7.912-.299V7.467h3.182v7.243h7.815V7.467h3.186v17.422h-3.186v-7.591h-7.815v7.591h-3.186zm21.511 0V7.467h3.188v7.243h7.813V7.467h3.188v17.422h-3.186v-7.591h-7.815v7.591h-3.188zm15.457 0 6.372-17.422h3.584l6.372 17.422h-3.385l-1.394-4.032h-6.795l-1.42 4.032h-3.335zm5.625-6.521h5.052l-2.539-7.243-2.514 7.243zm11.951 6.521V7.467h6.396c1.394 0 2.539.24 3.435.722.912.464 1.593 1.102 2.041 1.916.448.796.672 1.684.672 2.663a5.296 5.296 0 0 1-.846 2.912c-.548.88-1.412 1.518-2.588 1.916l3.609 7.292H163l-3.236-6.869h-2.638v6.869h-3.188zm3.185-9.209h3.012c1.061 0 1.842-.258 2.34-.772.498-.516.747-1.195.747-2.041 0-.83-.249-1.493-.747-1.991-.482-.498-1.269-.747-2.364-.747h-2.987v5.55zm15.769 9.209-6.37-17.422h3.412l4.928 14.162 4.953-14.162h3.36l-6.375 17.422h-3.906zm11.357 0V7.467h11.374v2.564h-8.188v4.779h7.442v2.489h-7.442v5.028h8.188v2.564h-11.374zm19.34.299c-1.276 0-2.405-.215-3.385-.647a5.625 5.625 0 0 1-2.303-1.874l-.012-.017c-.564-.83-.853-1.833-.871-3.012h3.36c.034.812.324 1.502.871 2.066.565.548 1.337.821 2.315.821.846 0 1.518-.199 2.016-.597.498-.414.747-.962.747-1.643 0-.713-.224-1.269-.672-1.668-.43-.398-1.012-.722-1.742-.971l-2.34-.796c-1.344-.464-2.372-1.061-3.086-1.792-.697-.729-1.045-1.701-1.045-2.912-.016-1.029.224-1.908.722-2.638a5.014 5.014 0 0 1 2.059-1.705l.032-.013c.88-.414 1.892-.622 3.036-.622 1.163 0 2.183.208 3.061.622.896.414 1.593.996 2.091 1.742.516.747.789 1.636.821 2.663h-3.41a2.3 2.3 0 0 0-.721-1.617l-.001-.001c-.448-.48-1.077-.722-1.892-.722-.697-.018-1.285.158-1.767.523-.464.348-.697.862-.697 1.543 0 .581.183 1.045.548 1.394.366.332.864.613 1.493.846.631.231 1.353.48 2.165.747.864.299 1.652.647 2.364 1.045.715.398 1.287.93 1.717 1.593.432.647.647 1.484.647 2.514a4.86 4.86 0 0 1-.697 2.539c-.464.78-1.152 1.41-2.066 1.892-.912.464-2.032.697-3.36.697zm11.746-.299V10.03h-5.077V7.466h13.365v2.564h-5.102v14.859h-3.186zm14.587 0V7.467h6.994c1.81 0 3.186.423 4.132 1.269.964.83 1.444 1.9 1.444 3.211 0 1.095-.299 1.973-.896 2.638a4.374 4.374 0 0 1-2.11 1.312l-.031.007a4.131 4.131 0 0 1 2.464 1.493c.647.78.971 1.692.971 2.738 0 1.378-.498 2.514-1.493 3.41s-2.405 1.344-4.231 1.344h-7.243zm3.185-10.105h3.335c.896 0 1.586-.208 2.066-.622.482-.414.722-1.004.722-1.767 0-.729-.24-1.303-.722-1.717-.464-.432-1.17-.647-2.116-.647h-3.285v4.754zm0 7.516h3.559c.946 0 1.676-.215 2.19-.647.532-.448.796-1.07.796-1.867 0-.812-.274-1.452-.821-1.916s-1.285-.697-2.215-.697h-3.509V22.3zm19.684 2.888c-1.742 0-3.268-.382-4.58-1.145a8.305 8.305 0 0 1-3.04-3.119l-.022-.042c-.729-1.36-1.095-2.928-1.095-4.704s.366-3.335 1.095-4.679a8.258 8.258 0 0 1 3.024-3.165l.037-.021c1.312-.764 2.837-1.145 4.58-1.145 1.726 0 3.244.382 4.555 1.145a8.016 8.016 0 0 1 3.04 3.143l.021.043c.731 1.344 1.095 2.903 1.095 4.679s-.364 3.342-1.095 4.704a8.055 8.055 0 0 1-3.023 3.14l-.038.02c-1.31.764-2.828 1.145-4.555 1.145zm0-2.863c1.66 0 2.98-.548 3.957-1.643.996-1.095 1.493-2.596 1.493-4.505 0-1.908-.498-3.41-1.493-4.505-.978-1.095-2.297-1.643-3.957-1.643-1.659 0-2.987.548-3.982 1.643s-1.493 2.596-1.493 4.505c0 1.908.498 3.41 1.493 4.505s2.324 1.643 3.982 1.643zm8.419 2.564 5.451-8.811-5.525-8.612h3.659l3.908 6.073 3.584-6.073h3.584l-5.451 8.761 5.575 8.661h-3.659l-3.957-6.148-3.584 6.148h-3.584z"/></symbol><symbol id="pageLogo" viewBox="0 0 34 32"><path fill="#ae1332" style="fill:var(--color1,#ae1332)" d="M30.082.314H26.052a2.22 2.22 0 0 0-2.22 2.195v3.929a2.22 2.22 0 0 0 2.22 2.196h4.05a2.22 2.22 0 0 0 2.22-2.195V2.51a2.22 2.22 0 0 0-2.22-2.196h-.021.001zM7.73 23.04H3.412C2.08 23.04 1 24.024 1 25.236v3.928c0 1.214 1.08 2.196 2.412 2.196h4.32c1.33 0 2.41-.982 2.41-2.196v-3.928c0-1.214-1.08-2.196-2.412-2.196zm-.48-11.46H3.22A2.22 2.22 0 0 0 1 13.779v3.929a2.22 2.22 0 0 0 2.22 2.196h4.05a2.22 2.22 0 0 0 2.22-2.195V13.78a2.22 2.22 0 0 0-2.22-2.196h-.021.001zm11.516 11.4h-4.01c-1.236 0-2.24.98-2.24 2.194v3.928a2.22 2.22 0 0 0 2.22 2.196h4.05a2.22 2.22 0 0 0 2.22-2.195v-3.929a2.22 2.22 0 0 0-2.22-2.196h-.021.001zM7.25.086H3.22A2.22 2.22 0 0 0 1 2.281V6.21a2.22 2.22 0 0 0 2.22 2.196h4.05a2.22 2.22 0 0 0 2.22-2.195V2.282A2.22 2.22 0 0 0 7.27.086h-.021.001zm11.826 11.612h-4.01c-1.236 0-2.24.982-2.24 2.194v3.93a2.22 2.22 0 0 0 2.22 2.196h4.05a2.22 2.22 0 0 0 2.22-2.195v-3.931c0-1.212-1.002-2.194-2.24-2.194zM30.334 22.98h-4.01c-1.238 0-2.24.98-2.24 2.194v3.928a2.22 2.22 0 0 0 2.22 2.196h4.05a2.22 2.22 0 0 0 2.22-2.195v-3.929a2.22 2.22 0 0 0-2.22-2.196h-.021.001zM18.59.224h-4.008c-1.238 0-2.24.982-2.24 2.196v3.928a2.22 2.22 0 0 0 2.22 2.196H18.61a2.22 2.22 0 0 0 2.22-2.195V2.42c0-1.214-1.002-2.196-2.24-2.196zm11.454 11.702H26.014a2.22 2.22 0 0 0-2.22 2.195v3.929a2.22 2.22 0 0 0 2.22 2.196h4.05a2.22 2.22 0 0 0 2.22-2.195v-3.929a2.22 2.22 0 0 0-2.22-2.196h-.021.001z"/></symbol><symbol id="menu-h" viewBox="0 0 46 32"><path fill="#ae1332" style="fill:var(--color1,#ae1332)" d="M0 2.274A2.274 2.274 0 0 1 2.274 0h18.309a2.274 2.274 0 1 1 0 4.548H2.274A2.274 2.274 0 0 1 0 2.274zM0 16a2.274 2.274 0 0 1 2.274-2.274H43.44a2.274 2.274 0 1 1 0 4.548H2.274A2.274 2.274 0 0 1 0 16zm2.274 11.451a2.274 2.274 0 1 0 0 4.548h27.451a2.274 2.274 0 1 0 0-4.548H2.274z"/></symbol><symbol id="closeb" viewBox="0 0 32 32"><path fill="none" stroke="#ae1332" style="stroke:var(--color1,#ae1332)" stroke-linejoin="round" stroke-linecap="round" stroke-width="3.429" d="M24 8 8 24M8 8l16 16"/></symbol></defs></svg>